<svg width="591" height="837" viewBox="0 0 591 837" xmlns="http://www.w3.org/2000/svg" lang="en" xml:lang="en"><rect x="2" y="2" stroke-width="4" rx="6" width="587" height="833" stroke="rgba(65,132,228,0.4)" fill="#22272e"/><g font-weight="600" font-size="110pt" font-family="Verdana,Geneva,DejaVu Sans,sans-serif" text-rendering="geometricPrecision"><text x="1563" y="301" lengthAdjust="spacingAndGlyphs" textLength="1671" transform="scale(0.123)" fill="#539bf5">My GitHub Statistics</text><svg x="15" y="15" width="25" height="25" viewBox="0 0 16 16"><path fill="#ffffff" fill-rule="evenodd" d="M8 0C3.58 0 0 3.58 0 8c0 3.54 2.29 6.53 5.47 7.59.4.07.55-.17.55-.38 0-.19-.01-.82-.01-1.49-2.01.37-2.53-.49-2.69-.94-.09-.23-.48-.94-.82-1.13-.28-.15-.68-.52-.01-.53.63-.01 1.08.58 1.23.82.72 1.21 1.87.87 2.33.66.07-.52.28-.87.51-1.07-1.78-.2-3.64-.89-3.64-3.95 0-.87.31-1.59.82-2.15-.08-.2-.36-1.02.08-2.12 0 0 .67-.21 2.2.82.64-.18 1.32-.27 2-.27.68 0 1.36.09 2 .27 1.53-1.04 2.2-.82 2.2-.82.44 1.1.16 1.92.08 2.12.51.56.82 1.27.82 2.15 0 3.07-1.87 3.75-3.65 3.95.29.25.54.73.54 1.48 0 1.07-.01 1.93-.01 2.2 0 .21.15.46.55.38A8.013 8.013 0 0016 8c0-4.42-3.58-8-8-8z"/></svg><svg x="551" y="15" width="25" height="25" viewBox="0 0 16 16"><path fill="#ffffff" fill-rule="evenodd" d="M8 0C3.58 0 0 3.58 0 8c0 3.54 2.29 6.53 5.47 7.59.4.07.55-.17.55-.38 0-.19-.01-.82-.01-1.49-2.01.37-2.53-.49-2.69-.94-.09-.23-.48-.94-.82-1.13-.28-.15-.68-.52-.01-.53.63-.01 1.08.58 1.23.82.72 1.21 1.87.87 2.33.66.07-.52.28-.87.51-1.07-1.78-.2-3.64-.89-3.64-3.95 0-.87.31-1.59.82-2.15-.08-.2-.36-1.02.08-2.12 0 0 .67-.21 2.2.82.64-.18 1.32-.27 2-.27.68 0 1.36.09 2 .27 1.53-1.04 2.2-.82 2.2-.82.44 1.1.16 1.92.08 2.12.51.56.82 1.27.82 2.15 0 3.07-1.87 3.75-3.65 3.95.29.25.54.73.54 1.48 0 1.07-.01 1.93-.01 2.2 0 .21.15.46.55.38A8.013 8.013 0 0016 8c0-4.42-3.58-8-8-8z"/></svg><g transform="translate(0, 60)" fill="#adbac7"><g transform="translate(15, 0)"><g transform="scale(0.095)"><text x="0" y="132" textLength="1851" lengthAdjust="spacingAndGlyphs">General Stats and Info</text></g></g><g transform="translate(15, 21)"><path fill="#316dca" fill-rule="evenodd" d="M13.25 0a.75.75 0 01.75.75V2h1.25a.75.75 0 010 1.5H14v1.25a.75.75 0 01-1.5 0V3.5h-1.25a.75.75 0 010-1.5h1.25V.75a.75.75 0 01.75-.75zM5.5 4a2 2 0 100 4 2 2 0 000-4zm2.4 4.548a3.5 3.5 0 10-4.799 0 5.527 5.527 0 00-3.1 4.66.75.75 0 101.498.085A4.01 4.01 0 015.5 9.5a4.01 4.01 0 014.001 3.793.75.75 0 101.498-.086 5.527 5.527 0 00-3.1-4.659z"/><g transform="scale(0.095)"><text lengthAdjust="spacingAndGlyphs" textLength="932" x="263" y="132">Year Joined</text><text lengthAdjust="spacingAndGlyphs" textLength="420" x="3105" y="132">2021</text></g></g><g transform="translate(15, 42)"><path fill="#316dca" fill-rule="evenodd" d="M8 .25a.75.75 0 01.673.418l1.882 3.815 4.21.612a.75.75 0 01.416 1.279l-3.046 2.97.719 4.192a.75.75 0 01-1.088.791L8 12.347l-3.766 1.98a.75.75 0 01-1.088-.79l.72-4.194L.818 6.374a.75.75 0 01.416-1.28l4.21-.611L7.327.668A.75.75 0 018 .25zm0 2.445L6.615 5.5a.75.75 0 01-.564.41l-3.097.45 2.24 2.184a.75.75 0 01.216.664l-.528 3.084 2.769-1.456a.75.75 0 01.698 0l2.77 1.456-.53-3.084a.75.75 0 01.216-.664l2.24-2.183-3.096-.45a.75.75 0 01-.564-.41L8 2.694v.001z"/><g transform="scale(0.095)"><text lengthAdjust="spacingAndGlyphs" textLength="1532" x="263" y="132">Most Starred Repo</text><text lengthAdjust="spacingAndGlyphs" textLength="2781" x="3105" y="132">A-collection-of-useful-repositories</text></g></g><g transform="translate(15, 63)"><path fill="#316dca" fill-rule="evenodd" d="M5 3.25a.75.75 0 11-1.5 0 .75.75 0 011.5 0zm0 2.122a2.25 2.25 0 10-1.5 0v.878A2.25 2.25 0 005.75 8.5h1.5v2.128a2.251 2.251 0 101.5 0V8.5h1.5a2.25 2.25 0 002.25-2.25v-.878a2.25 2.25 0 10-1.5 0v.878a.75.75 0 01-.75.75h-4.5A.75.75 0 015 6.25v-.878zm3.75 7.378a.75.75 0 11-1.5 0 .75.75 0 011.5 0zm3-8.75a.75.75 0 100-1.5.75.75 0 000 1.5z"/><g transform="scale(0.095)"><text lengthAdjust="spacingAndGlyphs" textLength="1485" x="263" y="132">Most Forked Repo</text><text lengthAdjust="spacingAndGlyphs" textLength="2781" x="3105" y="132">A-collection-of-useful-repositories</text></g></g><g transform="translate(15, 84)"><path fill="#316dca" fill-rule="evenodd" d="M5.5 3.5a2 2 0 100 4 2 2 0 000-4zM2 5.5a3.5 3.5 0 115.898 2.549 5.507 5.507 0 013.034 4.084.75.75 0 11-1.482.235 4.001 4.001 0 00-7.9 0 .75.75 0 01-1.482-.236A5.507 5.507 0 013.102 8.05 3.49 3.49 0 012 5.5zM11 4a.75.75 0 100 1.5 1.5 1.5 0 01.666 2.844.75.75 0 00-.416.672v.352a.75.75 0 00.574.73c1.2.289 2.162 1.2 2.522 2.372a.75.75 0 101.434-.44 5.01 5.01 0 00-2.56-3.012A3 3 0 0011 4z"/><g transform="scale(0.095)"><text lengthAdjust="spacingAndGlyphs" textLength="778" x="263" y="132">Followers</text><text lengthAdjust="spacingAndGlyphs" textLength="315" x="3105" y="132">116</text></g></g></g><g transform="translate(0, 186)" fill="#adbac7"><g transform="translate(15, 0)"><g transform="scale(0.095)"><text x="0" y="132" textLength="1020" lengthAdjust="spacingAndGlyphs">Repositories</text><text x="3105" y="132" textLength="832" lengthAdjust="spacingAndGlyphs">Non-Forks</text><text x="4653" y="132" textLength="206" lengthAdjust="spacingAndGlyphs">All</text></g></g><g transform="translate(15, 21)"><path fill="#316dca" fill-rule="evenodd" d="M2 2.5A2.5 2.5 0 014.5 0h8.75a.75.75 0 01.75.75v12.5a.75.75 0 01-.75.75h-2.5a.75.75 0 110-1.5h1.75v-2h-8a1 1 0 00-.714 1.7.75.75 0 01-1.072 1.05A2.495 2.495 0 012 11.5v-9zm10.5-1V9h-8c-.356 0-.694.074-1 .208V2.5a1 1 0 011-1h8zM5 12.25v3.25a.25.25 0 00.4.2l1.45-1.087a.25.25 0 01.3 0L8.6 15.7a.25.25 0 00.4-.2v-3.25a.25.25 0 00-.25-.25h-3.5a.25.25 0 00-.25.25z"/><g transform="scale(0.095)"><text lengthAdjust="spacingAndGlyphs" textLength="1312" x="263" y="132">My Repositories</text><text lengthAdjust="spacingAndGlyphs" textLength="210" x="3105" y="132">54</text><text lengthAdjust="spacingAndGlyphs" textLength="210" x="4653" y="132">82</text></g></g><g transform="translate(15, 42)"><path fill="#316dca" fill-rule="evenodd" d="M8 .25a.75.75 0 01.673.418l1.882 3.815 4.21.612a.75.75 0 01.416 1.279l-3.046 2.97.719 4.192a.75.75 0 01-1.088.791L8 12.347l-3.766 1.98a.75.75 0 01-1.088-.79l.72-4.194L.818 6.374a.75.75 0 01.416-1.28l4.21-.611L7.327.668A.75.75 0 018 .25zm0 2.445L6.615 5.5a.75.75 0 01-.564.41l-3.097.45 2.24 2.184a.75.75 0 01.216.664l-.528 3.084 2.769-1.456a.75.75 0 01.698 0l2.77 1.456-.53-3.084a.75.75 0 01.216-.664l2.24-2.183-3.096-.45a.75.75 0 01-.564-.41L8 2.694v.001z"/><g transform="scale(0.095)"><text lengthAdjust="spacingAndGlyphs" textLength="874" x="263" y="132">Starred By</text><text lengthAdjust="spacingAndGlyphs" textLength="315" x="3105" y="132">330</text><text lengthAdjust="spacingAndGlyphs" textLength="315" x="4653" y="132">381</text></g></g><g transform="translate(15, 63)"><path fill="#316dca" fill-rule="evenodd" d="M5 3.25a.75.75 0 11-1.5 0 .75.75 0 011.5 0zm0 2.122a2.25 2.25 0 10-1.5 0v.878A2.25 2.25 0 005.75 8.5h1.5v2.128a2.251 2.251 0 101.5 0V8.5h1.5a2.25 2.25 0 002.25-2.25v-.878a2.25 2.25 0 10-1.5 0v.878a.75.75 0 01-.75.75h-4.5A.75.75 0 015 6.25v-.878zm3.75 7.378a.75.75 0 11-1.5 0 .75.75 0 011.5 0zm3-8.75a.75.75 0 100-1.5.75.75 0 000 1.5z"/><g transform="scale(0.095)"><text lengthAdjust="spacingAndGlyphs" textLength="828" x="263" y="132">Forked By</text><text lengthAdjust="spacingAndGlyphs" textLength="210" x="3105" y="132">86</text><text lengthAdjust="spacingAndGlyphs" textLength="210" x="4653" y="132">88</text></g></g><g transform="translate(15, 84)"><path fill="#316dca" fill-rule="evenodd" d="M1.679 7.932c.412-.621 1.242-1.75 2.366-2.717C5.175 4.242 6.527 3.5 8 3.5c1.473 0 2.824.742 3.955 1.715 1.124.967 1.954 2.096 2.366 2.717a.119.119 0 010 .136c-.412.621-1.242 1.75-2.366 2.717C10.825 11.758 9.473 12.5 8 12.5c-1.473 0-2.824-.742-3.955-1.715C2.92 9.818 2.09 8.69 1.679 8.068a.119.119 0 010-.136zM8 2c-1.981 0-3.67.992-4.933 2.078C1.797 5.169.88 6.423.43 7.1a1.619 1.619 0 000 1.798c.45.678 1.367 1.932 2.637 3.024C4.329 13.008 6.019 14 8 14c1.981 0 3.67-.992 4.933-2.078 1.27-1.091 2.187-2.345 2.637-3.023a1.619 1.619 0 000-1.798c-.45-.678-1.367-1.932-2.637-3.023C11.671 2.992 9.981 2 8 2zm0 8a2 2 0 100-4 2 2 0 000 4z"/><g transform="scale(0.095)"><text lengthAdjust="spacingAndGlyphs" textLength="993" x="263" y="132">Watched By</text><text lengthAdjust="spacingAndGlyphs" textLength="105" x="3105" y="132">4</text><text lengthAdjust="spacingAndGlyphs" textLength="105" x="4653" y="132">2</text></g></g><g transform="translate(15, 105)"><path fill="#316dca" fill-rule="evenodd" d="M6 .75A.75.75 0 016.75 0h2.5a.75.75 0 010 1.5h-2.5A.75.75 0 016 .75zm5 0a.75.75 0 01.75-.75h1.5a.75.75 0 01.75.75v1.5a.75.75 0 01-1.5 0V1.5h-.75A.75.75 0 0111 .75zM4.992.662a.75.75 0 01-.636.848c-.436.063-.783.41-.846.846a.75.75 0 01-1.485-.212A2.501 2.501 0 014.144.025a.75.75 0 01.848.637zM2.75 4a.75.75 0 01.75.75v1.5a.75.75 0 01-1.5 0v-1.5A.75.75 0 012.75 4zm10.5 0a.75.75 0 01.75.75v1.5a.75.75 0 01-1.5 0v-1.5a.75.75 0 01.75-.75zM2.75 8a.75.75 0 01.75.75v.268A1.72 1.72 0 013.75 9h.5a.75.75 0 010 1.5h-.5a.25.25 0 00-.25.25v.75c0 .28.114.532.3.714a.75.75 0 01-1.05 1.072A2.495 2.495 0 012 11.5V8.75A.75.75 0 012.75 8zm10.5 0a.75.75 0 01.75.75v4.5a.75.75 0 01-.75.75h-2.5a.75.75 0 010-1.5h1.75v-2h-.75a.75.75 0 010-1.5h.75v-.25a.75.75 0 01.75-.75zM6 9.75A.75.75 0 016.75 9h2.5a.75.75 0 010 1.5h-2.5A.75.75 0 016 9.75zm-1 2.5v3.25a.25.25 0 00.4.2l1.45-1.087a.25.25 0 01.3 0L8.6 15.7a.25.25 0 00.4-.2v-3.25a.25.25 0 00-.25-.25h-3.5a.25.25 0 00-.25.25z"/><g transform="scale(0.095)"><text lengthAdjust="spacingAndGlyphs" textLength="868" x="263" y="132">Templates</text><text lengthAdjust="spacingAndGlyphs" textLength="105" x="3105" y="132">0</text><text lengthAdjust="spacingAndGlyphs" textLength="105" x="4653" y="132">1</text></g></g></g><g transform="translate(0, 333)" fill="#adbac7"><g transform="translate(15, 0)"><g transform="scale(0.095)"><text x="0" y="132" textLength="1112" lengthAdjust="spacingAndGlyphs">Contributions</text><text x="3105" y="132" textLength="774" lengthAdjust="spacingAndGlyphs">Past Year</text><text x="4653" y="132" textLength="414" lengthAdjust="spacingAndGlyphs">Total</text></g></g><g transform="translate(15, 21)"><path fill="#316dca" fill-rule="evenodd" d="M10.5 7.75a2.5 2.5 0 11-5 0 2.5 2.5 0 015 0zm1.43.75a4.002 4.002 0 01-7.86 0H.75a.75.75 0 110-1.5h3.32a4.001 4.001 0 017.86 0h3.32a.75.75 0 110 1.5h-3.32z"/><g transform="scale(0.095)"><text lengthAdjust="spacingAndGlyphs" textLength="734" x="263" y="132">Commits</text><text lengthAdjust="spacingAndGlyphs" textLength="420" x="3105" y="132">1517</text><text lengthAdjust="spacingAndGlyphs" textLength="420" x="4653" y="132">3582</text></g></g><g transform="translate(15, 42)"><path fill="#316dca" d="M8 9.5a1.5 1.5 0 100-3 1.5 1.5 0 000 3z"/><path fill="#316dca" fill-rule="evenodd" d="M8 0a8 8 0 100 16A8 8 0 008 0zM1.5 8a6.5 6.5 0 1113 0 6.5 6.5 0 01-13 0z"/><g transform="scale(0.095)"><text lengthAdjust="spacingAndGlyphs" textLength="512" x="263" y="132">Issues</text><text lengthAdjust="spacingAndGlyphs" textLength="315" x="3105" y="132">205</text><text lengthAdjust="spacingAndGlyphs" textLength="315" x="4653" y="132">604</text></g></g><g transform="translate(15, 63)"><path fill="#316dca" fill-rule="evenodd" d="M7.177 3.073L9.573.677A.25.25 0 0110 .854v4.792a.25.25 0 01-.427.177L7.177 3.427a.25.25 0 010-.354zM3.75 2.5a.75.75 0 100 1.5.75.75 0 000-1.5zm-2.25.75a2.25 2.25 0 113 2.122v5.256a2.251 2.251 0 11-1.5 0V5.372A2.25 2.25 0 011.5 3.25zM11 2.5h-1V4h1a1 1 0 011 1v5.628a2.251 2.251 0 101.5 0V5A2.5 2.5 0 0011 2.5zm1 10.25a.75.75 0 111.5 0 .75.75 0 01-1.5 0zM3.75 12a.75.75 0 100 1.5.75.75 0 000-1.5z"/><g transform="scale(0.095)"><text lengthAdjust="spacingAndGlyphs" textLength="1113" x="263" y="132">Pull Requests</text><text lengthAdjust="spacingAndGlyphs" textLength="210" x="3105" y="132">92</text><text lengthAdjust="spacingAndGlyphs" textLength="315" x="4653" y="132">226</text></g></g><g transform="translate(15, 84)"><path fill="#316dca" fill-rule="evenodd" d="M1.5 2.75a.25.25 0 01.25-.25h8.5a.25.25 0 01.25.25v5.5a.25.25 0 01-.25.25h-3.5a.75.75 0 00-.53.22L3.5 11.44V9.25a.75.75 0 00-.75-.75h-1a.25.25 0 01-.25-.25v-5.5zM1.75 1A1.75 1.75 0 000 2.75v5.5C0 9.216.784 10 1.75 10H2v1.543a1.457 1.457 0 002.487 1.03L7.061 10h3.189A1.75 1.75 0 0012 8.25v-5.5A1.75 1.75 0 0010.25 1h-8.5zM14.5 4.75a.25.25 0 00-.25-.25h-.5a.75.75 0 110-1.5h.5c.966 0 1.75.784 1.75 1.75v5.5A1.75 1.75 0 0114.25 12H14v1.543a1.457 1.457 0 01-2.487 1.03L9.22 12.28a.75.75 0 111.06-1.06l2.22 2.22v-2.19a.75.75 0 01.75-.75h1a.25.25 0 00.25-.25v-5.5z"/><g transform="scale(0.095)"><text lengthAdjust="spacingAndGlyphs" textLength="1762" x="263" y="132">Pull Request Reviews</text><text lengthAdjust="spacingAndGlyphs" textLength="210" x="3105" y="132">80</text><text lengthAdjust="spacingAndGlyphs" textLength="315" x="4653" y="132">263</text></g></g><g transform="translate(15, 105)"><path fill="#316dca" fill-rule="evenodd" d="M1 2.5A2.5 2.5 0 013.5 0h8.75a.75.75 0 01.75.75v3.5a.75.75 0 01-1.5 0V1.5h-8a1 1 0 00-1 1v6.708A2.492 2.492 0 013.5 9h3.25a.75.75 0 010 1.5H3.5a1 1 0 100 2h5.75a.75.75 0 010 1.5H3.5A2.5 2.5 0 011 11.5v-9zm13.23 7.79a.75.75 0 001.06-1.06l-2.505-2.505a.75.75 0 00-1.06 0L9.22 9.229a.75.75 0 001.06 1.061l1.225-1.224v6.184a.75.75 0 001.5 0V9.066l1.224 1.224z"/><g transform="scale(0.095)"><text lengthAdjust="spacingAndGlyphs" textLength="1234" x="263" y="132">Contributed To</text><text lengthAdjust="spacingAndGlyphs" textLength="210" x="3105" y="132">41</text></g></g><g transform="translate(15, 126)"><path fill="#316dca" fill-rule="evenodd" d="M4 4v2h-.25A1.75 1.75 0 002 7.75v5.5c0 .966.784 1.75 1.75 1.75h8.5A1.75 1.75 0 0014 13.25v-5.5A1.75 1.75 0 0012.25 6H12V4a4 4 0 10-8 0zm6.5 2V4a2.5 2.5 0 00-5 0v2h5zM12 7.5h.25a.25.25 0 01.25.25v5.5a.25.25 0 01-.25.25h-8.5a.25.25 0 01-.25-.25v-5.5a.25.25 0 01.25-.25H12z"/><g transform="scale(0.095)"><text lengthAdjust="spacingAndGlyphs" textLength="1742" x="263" y="132">Private Contributions</text><text lengthAdjust="spacingAndGlyphs" textLength="315" x="3105" y="132">344</text><text lengthAdjust="spacingAndGlyphs" textLength="420" x="4653" y="132">1714</text></g></g></g><g transform="translate(0, 501)" fill="#adbac7"><g transform="translate(15, 0)"><g transform="scale(0.095)"><text x="0" y="132" textLength="3652" lengthAdjust="spacingAndGlyphs">Language Distribution in Public Repositories</text></g></g><g transform="translate(310, 21)"><circle cx="123" cy="123" r="123" fill="#ffffff"/></g><g transform="translate(311, 22)"><g><path fill-rule="evenodd" fill="#e34c26" d="M 0.0,122.00000000000001 A 122 122 0 0 1 233.08776561111188 71.56679336458302 L 122,122 Z"/><path fill-rule="evenodd" fill="#b07219" d="M 233.08776561111188,71.56679336458302 A 122 122 0 0 1 222.47356627439865 191.2030525345813 L 122,122 Z"/><path fill-rule="evenodd" fill="#3572A5" d="M 222.47356627439865,191.2030525345813 A 122 122 0 0 1 135.96026491070552 243.1986427466204 L 122,122 Z"/><path fill-rule="evenodd" fill="#f1e05a" d="M 135.96026491070552,243.1986427466204 A 122 122 0 0 1 43.83954394350977 215.6746663140118 L 122,122 Z"/><path fill-rule="evenodd" fill="#563d7c" d="M 43.83954394350977,215.6746663140118 A 122 122 0 0 1 17.917294328091614 185.6458198157184 L 122,122 Z"/><path fill-rule="evenodd" fill="#555555" d="M 17.917294328091614,185.6458198157184 A 122 122 0 0 1 4.267526506317012 153.98538236537485 L 122,122 Z"/><path fill-rule="evenodd" fill="#f34b7d" d="M 4.267526506317012,153.98538236537485 A 122 122 0 0 1 0.5868721173783484 133.9520867532897 L 122,122 Z"/><path fill-rule="evenodd" fill="#DA5B0B" d="M 0.5868721173783484,133.9520867532897 A 122 122 0 0 1 0.06068624744807494 125.84756566632751 L 122,122 Z"/><path fill-rule="evenodd" fill="#ca0f21" d="M 0.06068624744807494,125.84756566632751 A 122 122 0 0 1 0.02621468794485793 124.52897146062986 L 122,122 Z"/><path fill-rule="evenodd" fill="#336790" d="M 0.02621468794485793,124.52897146062986 A 122 122 0 0 1 0.0122948130231606 123.73198822606435 L 122,122 Z"/><path fill-rule="evenodd" fill="#89e051" d="M 0.0122948130231606,123.73198822606435 A 122 122 0 0 1 0.0043112535480389624 123.02563506122473 L 122,122 Z"/><path fill-rule="evenodd" fill="#4F5D95" d="M 0.0043112535480389624,123.02563506122473 A 122 122 0 0 1 0.0005010522198176659 122.3496519563532 L 122,122 Z"/><path fill-rule="evenodd" fill="#e16737" d="M 0.0005010522198176659,122.3496519563532 A 122 122 0 0 1 3.149758769893651e-05 122.08766647254177 L 122,122 Z"/><path fill-rule="evenodd" fill="#7e7eff" d="M 3.149758769893651e-05,122.08766647254177 A 122 122 0 0 1 2.0374664160272005e-06 122.02229667689207 L 122,122 Z"/><path fill-rule="evenodd" fill="#438eff" d="M 2.0374664160272005e-06,122.02229667689207 A 122 122 0 0 1 0.0 122.00000000000004 L 122,122 Z"/><animateTransform attributeName="transform" attributeType="XML" type="rotate" from="0 122 122" to="360 122 122" dur="10s" repeatCount="indefinite"/></g></g><g transform="translate(15, 21)"><rect x="0.5" y="0.5" rx="2" width="15" height="15" fill="#e34c26" stroke-width="1" stroke="#ffffff"/><text transform="scale(0.095)" x="263" y="132" textLength="1142" lengthAdjust="spacingAndGlyphs">HTML 43.22%</text></g><g transform="translate(15, 42)"><rect x="0.5" y="0.5" rx="2" width="15" height="15" fill="#b07219" stroke-width="1" stroke="#ffffff"/><text transform="scale(0.095)" x="263" y="132" textLength="1038" lengthAdjust="spacingAndGlyphs">Java 16.38%</text></g><g transform="translate(15, 63)"><rect x="0.5" y="0.5" rx="2" width="15" height="15" fill="#3572A5" stroke-width="1" stroke="#ffffff"/><text transform="scale(0.095)" x="263" y="132" textLength="1254" lengthAdjust="spacingAndGlyphs">Python 13.58%</text></g><g transform="translate(15, 84)"><rect x="0.5" y="0.5" rx="2" width="15" height="15" fill="#f1e05a" stroke-width="1" stroke="#ffffff"/><text transform="scale(0.095)" x="263" y="132" textLength="1516" lengthAdjust="spacingAndGlyphs">JavaScript 12.89%</text></g><g transform="translate(15, 105)"><rect x="0.5" y="0.5" rx="2" width="15" height="15" fill="#563d7c" stroke-width="1" stroke="#ffffff"/><text transform="scale(0.095)" x="263" y="132" textLength="903" lengthAdjust="spacingAndGlyphs">CSS 5.20%</text></g><g transform="translate(15, 126)"><rect x="0.5" y="0.5" rx="2" width="15" height="15" fill="#555555" stroke-width="1" stroke="#ffffff"/><text transform="scale(0.095)" x="263" y="132" textLength="693" lengthAdjust="spacingAndGlyphs">C 4.51%</text></g><g transform="translate(15, 147)"><rect x="0.5" y="0.5" rx="2" width="15" height="15" fill="#f34b7d" stroke-width="1" stroke="#ffffff"/><text transform="scale(0.095)" x="263" y="132" textLength="969" lengthAdjust="spacingAndGlyphs">C++ 2.66%</text></g><g transform="translate(15, 168)"><rect x="0.5" y="0.5" rx="2" width="15" height="15" fill="#DA5B0B" stroke-width="1" stroke="#ffffff"/><text transform="scale(0.095)" x="263" y="132" textLength="2020" lengthAdjust="spacingAndGlyphs">Jupyter Notebook 1.06%</text></g><g transform="translate(15, 189)"><rect x="0.5" y="0.5" rx="2" width="15" height="15" fill="#ca0f21" stroke-width="1" stroke="#ffffff"/><text transform="scale(0.095)" x="263" y="132" textLength="1071" lengthAdjust="spacingAndGlyphs">Scilab 0.17%</text></g><g transform="translate(15, 210)"><rect x="0.5" y="0.5" rx="2" width="15" height="15" fill="#336790" stroke-width="1" stroke="#ffffff"/><text transform="scale(0.095)" x="263" y="132" textLength="1305" lengthAdjust="spacingAndGlyphs">PLpgSQL 0.10%</text></g><g transform="translate(15, 231)"><rect x="0.5" y="0.5" rx="2" width="15" height="15" fill="#89e051" stroke-width="1" stroke="#ffffff"/><text transform="scale(0.095)" x="263" y="132" textLength="982" lengthAdjust="spacingAndGlyphs">Shell 0.09%</text></g><g transform="translate(15, 252)"><rect x="0.5" y="0.5" rx="2" width="15" height="15" fill="#4F5D95" stroke-width="1" stroke="#ffffff"/><text transform="scale(0.095)" x="263" y="132" textLength="900" lengthAdjust="spacingAndGlyphs">PHP 0.09%</text></g><g transform="translate(15, 273)"><rect x="0.5" y="0.5" rx="2" width="15" height="15" fill="#e16737" stroke-width="1" stroke="#ffffff"/><text transform="scale(0.095)" x="263" y="132" textLength="1251" lengthAdjust="spacingAndGlyphs">MATLAB 0.03%</text><rect x="295.5" y="0.5" rx="2" width="15" height="15" fill="#7e7eff" stroke-width="1" stroke="#ffffff"/><text transform="scale(0.095)" x="3368" y="132" textLength="844" lengthAdjust="spacingAndGlyphs">Nix 0.01%</text></g><g transform="translate(15, 294)"><rect x="0.5" y="0.5" rx="2" width="15" height="15" fill="#438eff" stroke-width="1" stroke="#ffffff"/><text transform="scale(0.095)" x="263" y="132" textLength="1538" lengthAdjust="spacingAndGlyphs">Objective-C 0.00%</text></g></g></g></svg>